<svg width="17" height="17" viewBox="0 0 17 17" fill="none" xmlns="http://www.w3.org/2000/svg">
<path d="M15.6796 0.385969C15.5062 0.213791 15.2886 0.0927453 15.051 0.0361411C14.8133 -0.0204539 14.5645 -0.0104255 14.3321 0.0651353L0.921272 4.53847C0.672553 4.61727 0.452773 4.76803 0.28968 4.97168C0.126586 5.17532 0.0275037 5.42274 0.00494456 5.68267C-0.0176146 5.9426 0.0373578 6.20335 0.162923 6.43206C0.288497 6.66077 0.479017 6.84713 0.710439 6.96767L6.2746 9.71767L9.0246 15.3002C9.13515 15.5186 9.30428 15.7021 9.5131 15.83C9.72191 15.9579 9.96226 16.0252 10.2071 16.0243H10.2988C10.561 16.005 10.8114 15.9073 11.0173 15.7437C11.2233 15.5803 11.3754 15.3587 11.4538 15.1077L15.9913 1.73347C16.0723 1.5024 16.0861 1.25308 16.0309 1.01452C15.9757 0.775964 15.8539 0.55799 15.6796 0.385969ZM1.48961 5.80347L13.1954 1.89847L6.69627 8.39767L1.48961 5.80347ZM10.2713 14.576L7.66794 9.36934L14.1671 2.87014L10.2713 14.576Z" fill="#F3F3F3"/>
</svg>
